<svg width="134" height="25" viewBox="0 0 134 25" fill="none" xmlns="http://www.w3.org/2000/svg">
<path d="M9.15 19.25C6.83333 19.25 4.83333 18.3083 3.15 16.425C1.48333 14.525 0.65 12.35 0.65 9.9C0.65 7.31667 1.41667 5.19167 2.95 3.525C4.5 1.85833 6.5 1.025 8.95 1.025C10.8667 1.025 12.5333 1.51667 13.95 2.5C15.3667 3.46667 16.075 4.55 16.075 5.75C16.075 6.25 15.9167 6.65833 15.6 6.975C15.2833 7.275 14.85 7.425 14.3 7.425C13.8 7.425 13.3583 7.25833 12.975 6.925C12.5917 6.59167 12.2583 6.19167 11.975 5.725C11.6917 5.24167 11.3917 4.75833 11.075 4.275C10.775 3.79167 10.375 3.38333 9.875 3.05C9.375 2.71667 8.8 2.55 8.15 2.55C7.1 2.55 6.2 3.025 5.45 3.975C4.7 4.90833 4.325 6.13333 4.325 7.65C4.325 10.0333 4.91667 12 6.1 13.55C7.3 15.1 8.69167 15.875 10.275 15.875C12.2417 15.875 13.8167 14.825 15 12.725C15.2 12.4417 15.4583 12.35 15.775 12.45C16.0917 12.5333 16.2333 12.7583 16.2 13.125C16.05 14.8417 15.3667 16.2917 14.15 17.475C12.9333 18.6583 11.2667 19.25 9.15 19.25ZM22.1969 4.625C21.7635 5.025 21.1802 5.225 20.4469 5.225C19.7135 5.225 19.1135 5.025 18.6469 4.625C18.1969 4.20833 17.9719 3.675 17.9719 3.025C17.9719 2.39167 18.1969 1.875 18.6469 1.475C19.1135 1.05833 19.7135 0.85 20.4469 0.85C21.1802 0.85 21.7635 1.05833 22.1969 1.475C22.6469 1.875 22.8719 2.39167 22.8719 3.025C22.8719 3.675 22.6469 4.20833 22.1969 4.625ZM18.1719 19C17.8052 19 17.6219 18.8583 17.6219 18.575V18.475C17.6219 18.3083 17.7802 18.05 18.0969 17.7C18.4135 17.35 18.5719 16.975 18.5719 16.575V10.925C18.5719 10.5083 18.4135 10.1167 18.0969 9.75C17.7802 9.38333 17.6219 9.13333 17.6219 9V8.925C17.6219 8.75833 17.7969 8.58333 18.1469 8.4L21.2719 6.85C21.5885 6.71667 21.8385 6.70833 22.0219 6.825C22.2052 6.925 22.2969 7.1 22.2969 7.35V16.575C22.2969 16.975 22.4719 17.35 22.8219 17.7C23.1719 18.05 23.3469 18.3083 23.3469 18.475V18.575C23.3469 18.8583 23.1552 19 22.7719 19H18.1719ZM37.749 16.575C37.7824 16.975 37.9407 17.35 38.224 17.7C38.5074 18.05 38.649 18.3167 38.649 18.5V18.6C38.649 18.8833 38.4574 19.025 38.074 19.025H33.749C33.3657 19.025 33.174 18.8833 33.174 18.6V18.5C33.174 18.3333 33.324 18.075 33.624 17.725C33.9407 17.375 34.0907 16.9917 34.074 16.575L33.824 11.95C33.7074 9.43333 32.9824 8.175 31.649 8.175C30.9824 8.175 30.4574 8.425 30.074 8.925C29.7074 9.425 29.524 10.0917 29.524 10.925V16.6C29.524 17 29.699 17.375 30.049 17.725C30.4157 18.075 30.599 18.3333 30.599 18.5V18.6C30.599 18.8833 30.4074 19.025 30.024 19.025H25.374C24.9907 19.025 24.799 18.8833 24.799 18.6V18.5C24.799 18.3333 24.974 18.075 25.324 17.725C25.6907 17.375 25.874 17 25.874 16.6V10.775C25.874 10.525 25.8074 10.3 25.674 10.1C25.5574 9.9 25.4157 9.75833 25.249 9.675C25.099 9.575 24.9574 9.45833 24.824 9.325C24.7074 9.19167 24.649 9.05833 24.649 8.925V8.825C24.649 8.64167 24.8157 8.46667 25.149 8.3L28.124 6.85C28.4074 6.71667 28.6157 6.70833 28.749 6.825C28.899 6.925 28.974 7.10833 28.974 7.375V8.775C29.6907 7.425 30.924 6.75 32.674 6.75C33.9407 6.75 35.0157 7.175 35.899 8.025C36.799 8.875 37.3157 10.225 37.449 12.075L37.749 16.575ZM49.9631 15.2C50.1131 15 50.2964 14.9333 50.5131 15C50.7298 15.0667 50.8298 15.225 50.8131 15.475C50.7298 16.3417 50.2298 17.1917 49.3131 18.025C48.3964 18.8417 47.2048 19.25 45.7381 19.25C43.9714 19.25 42.5214 18.6667 41.3881 17.5C40.2548 16.3333 39.6881 14.8 39.6881 12.9C39.6881 11.1167 40.2798 9.65 41.4631 8.5C42.6464 7.33333 44.0714 6.75 45.7381 6.75C47.2548 6.75 48.4214 7.10833 49.2381 7.825C50.0548 8.54167 50.4631 9.36667 50.4631 10.3C50.4631 11.0667 50.0964 11.6167 49.3631 11.95L43.8131 14.475C44.4964 15.925 45.5964 16.65 47.1131 16.65C47.7464 16.65 48.3131 16.5167 48.8131 16.25C49.3298 15.9667 49.7131 15.6167 49.9631 15.2ZM45.2881 7.85C44.6381 7.85 44.1214 8.16667 43.7381 8.8C43.3548 9.41667 43.1631 10.2083 43.1631 11.175C43.1631 11.9917 43.2464 12.7083 43.4131 13.325L46.6381 11.7C47.0714 11.4833 47.2881 11.0917 47.2881 10.525C47.2881 9.95833 47.1048 9.375 46.7381 8.775C46.3714 8.15833 45.8881 7.85 45.2881 7.85ZM72.8434 16.575C72.8767 16.975 73.035 17.35 73.3184 17.7C73.6017 18.05 73.7434 18.3167 73.7434 18.5V18.6C73.7434 18.8833 73.56 19.025 73.1934 19.025H68.8684C68.485 19.025 68.2934 18.8833 68.2934 18.6V18.5C68.2934 18.3333 68.4434 18.075 68.7434 17.725C69.06 17.375 69.2017 17 69.1684 16.6L68.9184 12.025C68.8517 10.6417 68.6434 9.65833 68.2934 9.075C67.9434 8.475 67.4267 8.175 66.7434 8.175C66.16 8.175 65.685 8.41667 65.3184 8.9C64.9517 9.38333 64.7517 10.0083 64.7184 10.775C64.785 11.1083 64.8184 11.5083 64.8184 11.975V16.6C64.8184 17 64.96 17.375 65.2434 17.725C65.5434 18.075 65.6934 18.3333 65.6934 18.5V18.6C65.6934 18.8833 65.51 19.025 65.1434 19.025H60.8184C60.435 19.025 60.2434 18.8833 60.2434 18.6V18.5C60.2434 18.3333 60.3934 18.075 60.6934 17.725C60.9934 17.375 61.1434 17 61.1434 16.6V11.725C61.1434 10.5917 60.9434 9.71667 60.5434 9.1C60.1434 8.48333 59.6184 8.175 58.9684 8.175C58.3017 8.175 57.7767 8.43333 57.3934 8.95C57.01 9.46667 56.8184 10.1333 56.8184 10.95V16.6C56.8184 17 56.9934 17.375 57.3434 17.725C57.71 18.075 57.8934 18.3333 57.8934 18.5V18.6C57.8934 18.8833 57.7017 19.025 57.3184 19.025H52.6684C52.285 19.025 52.0934 18.8833 52.0934 18.6V18.5C52.0934 18.3333 52.2684 18.075 52.6184 17.725C52.985 17.375 53.1684 17 53.1684 16.6V10.775C53.1684 10.4583 53.0684 10.1917 52.8684 9.975C52.6684 9.75833 52.46 9.575 52.2434 9.425C52.0434 9.25833 51.9434 9.09167 51.9434 8.925V8.825C51.9434 8.64167 52.1184 8.46667 52.4684 8.3L55.6184 6.85C55.9017 6.71667 56.1184 6.70833 56.2684 6.825C56.4184 6.925 56.4934 7.10833 56.4934 7.375V8.55C57.2767 7.35 58.4267 6.75 59.9434 6.75C61.8434 6.75 63.2267 7.5 64.0934 9C64.4267 8.3 64.9267 7.75 65.5934 7.35C66.2767 6.95 67.0434 6.75 67.8934 6.75C69.16 6.75 70.2184 7.175 71.0684 8.025C71.9184 8.85833 72.41 10.225 72.5434 12.125L72.8434 16.575ZM86.2205 16.5C86.2705 16.8833 86.3622 17.1917 86.4955 17.425C86.6455 17.6583 86.7955 17.8083 86.9455 17.875C87.0955 17.925 87.2288 17.9917 87.3455 18.075C87.4622 18.1583 87.5205 18.275 87.5205 18.425C87.5205 18.9083 86.7205 19.15 85.1205 19.15C84.3872 19.15 83.8455 19.0583 83.4955 18.875C83.1622 18.675 82.9622 18.3167 82.8955 17.8C82.2455 18.7667 81.1372 19.25 79.5705 19.25C78.1705 19.25 77.0372 18.925 76.1705 18.275C75.3038 17.625 74.8705 16.6917 74.8705 15.475C74.8538 14.275 75.2788 13.3417 76.1455 12.675C77.0122 12.0083 78.0955 11.675 79.3955 11.675C80.4955 11.675 81.4038 11.925 82.1205 12.425L82.0955 12.125C81.9288 10.5417 81.6955 9.425 81.3955 8.775C81.0955 8.125 80.5872 7.8 79.8705 7.8C79.4205 7.8 79.0538 7.96667 78.7705 8.3C78.4872 8.63333 78.2872 9 78.1705 9.4C78.0538 9.8 77.8622 10.1667 77.5955 10.5C77.3288 10.8333 76.9872 11 76.5705 11C76.1205 11 75.7538 10.875 75.4705 10.625C75.2038 10.3583 75.0705 10.0167 75.0705 9.6C75.0705 8.73333 75.5288 8.04167 76.4455 7.525C77.3788 7.00833 78.5205 6.75 79.8705 6.75C81.4872 6.75 82.8122 7.20833 83.8455 8.125C84.8788 9.04167 85.4872 10.2917 85.6705 11.875L86.2205 16.5ZM80.6705 18.15C81.2205 18.15 81.6622 17.925 81.9955 17.475C82.3288 17.0083 82.4788 16.4833 82.4455 15.9L82.3705 15.025C82.3038 14.3083 82.0872 13.7583 81.7205 13.375C81.3705 12.9917 80.9288 12.8 80.3955 12.8C79.8622 12.8 79.4205 12.9917 79.0705 13.375C78.7372 13.7583 78.5705 14.2667 78.5705 14.9C78.5705 15.8 78.7622 16.5667 79.1455 17.2C79.5455 17.8333 80.0538 18.15 80.6705 18.15ZM103.795 16.6C103.962 17 104.229 17.3667 104.595 17.7C104.979 18.0333 105.17 18.3 105.17 18.5V18.575C105.17 18.8583 104.987 19 104.62 19H99.1453C98.7786 19 98.5953 18.8583 98.5953 18.575V18.5C98.5953 18.3333 98.7036 18.1667 98.9203 18C99.1536 17.8167 99.3536 17.6167 99.5203 17.4C99.687 17.1667 99.712 16.9 99.5953 16.6L98.8453 14.6H91.8703L91.1453 16.6C91.0286 16.9 91.0536 17.1667 91.2203 17.4C91.387 17.6167 91.5786 17.8167 91.7953 18C92.0286 18.1667 92.1453 18.3333 92.1453 18.5V18.575C92.1453 18.8583 91.9536 19 91.5703 19H88.2953C87.9286 19 87.7453 18.8583 87.7453 18.575V18.5C87.7453 18.3 87.9286 18.0417 88.2953 17.725C88.662 17.3917 88.9286 17.0167 89.0953 16.6L94.0703 3.825C94.2036 3.475 94.087 3.06667 93.7203 2.6C93.3703 2.13333 93.1953 1.85 93.1953 1.75V1.65C93.1953 1.38333 93.362 1.25 93.6953 1.25H96.2953C96.9953 1.25 97.5036 1.60833 97.8203 2.325L103.795 16.6ZM92.4703 12.975H98.2453L95.3203 5.2L92.4703 12.975ZM113.204 6.75C114.77 6.75 116.137 7.29167 117.304 8.375C118.47 9.45833 119.054 10.9333 119.054 12.8C119.054 14.6833 118.479 16.2333 117.329 17.45C116.195 18.65 114.829 19.25 113.229 19.25C112.062 19.25 111.087 18.925 110.304 18.275V22C110.304 22.4 110.479 22.775 110.829 23.125C111.179 23.475 111.354 23.7333 111.354 23.9V24C111.354 24.2833 111.162 24.425 110.779 24.425H106.254C105.87 24.425 105.679 24.2833 105.679 24V23.9C105.679 23.7333 105.837 23.475 106.154 23.125C106.487 22.775 106.654 22.4 106.654 22V10.75C106.654 10.3833 106.462 10.05 106.079 9.75C105.695 9.43333 105.504 9.18333 105.504 9V8.875C105.504 8.64167 105.67 8.44167 106.004 8.275L108.804 6.9C109.437 6.58333 109.754 6.73333 109.754 7.35L109.729 8.4C110.429 7.3 111.587 6.75 113.204 6.75ZM112.854 18.175C113.654 18.175 114.27 17.8417 114.704 17.175C115.154 16.5083 115.379 15.55 115.379 14.3C115.379 12.6 115.104 11.1 114.554 9.8C114.004 8.48333 113.262 7.825 112.329 7.825C111.812 7.825 111.362 8.01667 110.979 8.4C110.595 8.76667 110.37 9.25 110.304 9.85V14.625C110.304 15.5917 110.562 16.425 111.079 17.125C111.595 17.825 112.187 18.175 112.854 18.175ZM127.901 6.75C129.468 6.75 130.834 7.29167 132.001 8.375C133.168 9.45833 133.751 10.9333 133.751 12.8C133.751 14.6833 133.176 16.2333 132.026 17.45C130.893 18.65 129.526 19.25 127.926 19.25C126.759 19.25 125.784 18.925 125.001 18.275V22C125.001 22.4 125.176 22.775 125.526 23.125C125.876 23.475 126.051 23.7333 126.051 23.9V24C126.051 24.2833 125.859 24.425 125.476 24.425H120.951C120.568 24.425 120.376 24.2833 120.376 24V23.9C120.376 23.7333 120.534 23.475 120.851 23.125C121.184 22.775 121.351 22.4 121.351 22V10.75C121.351 10.3833 121.159 10.05 120.776 9.75C120.393 9.43333 120.201 9.18333 120.201 9V8.875C120.201 8.64167 120.368 8.44167 120.701 8.275L123.501 6.9C124.134 6.58333 124.451 6.73333 124.451 7.35L124.426 8.4C125.126 7.3 126.284 6.75 127.901 6.75ZM127.551 18.175C128.351 18.175 128.968 17.8417 129.401 17.175C129.851 16.5083 130.076 15.55 130.076 14.3C130.076 12.6 129.801 11.1 129.251 9.8C128.701 8.48333 127.959 7.825 127.026 7.825C126.509 7.825 126.059 8.01667 125.676 8.4C125.293 8.76667 125.068 9.25 125.001 9.85V14.625C125.001 15.5917 125.259 16.425 125.776 17.125C126.293 17.825 126.884 18.175 127.551 18.175Z" fill="white"/>
</svg>
